<svg id="Layer_1" data-name="Layer 1" xmlns="http://www.w3.org/2000/svg" xmlns:xlink="http://www.w3.org/1999/xlink" viewBox="0 0 30 21.12"><defs><style>.cls-1{fill:none;}.cls-2{clip-path:url(#clip-path);}.cls-3{clip-path:url(#clip-path-2);}.cls-4{fill:#f80302;}</style><clipPath id="clip-path" transform="translate(-1 -5.44)"><rect class="cls-1" x="8.56" y="23.56" width="9.22" height="3.01"/></clipPath><clipPath id="clip-path-2" transform="translate(-1 -5.44)"><rect class="cls-1" x="8.3" y="5.43" width="15.54" height="17.34"/></clipPath></defs><title>logo</title><g class="cls-2"><path d="M17.27,26.06A13,13,0,0,1,15.85,26c-.84-.11-1-.73-1.09-1.51,0-.19,0-.39-.06-.62a32.73,32.73,0,0,1-3.7.92c-.11.64-.28,1.11-.76,1.21a5,5,0,0,1-1,.11c-.33,0-.44.08-.44.22s.19.28.55.28c1.12,0,2.88-.08,3.52-.08s2.48.08,4.33.08c.3,0,.53-.08.53-.28S17.58,26.06,17.27,26.06Z" transform="translate(-1 -5.44)"/></g><g class="cls-3"><path d="M22.24,7a4.92,4.92,0,0,0-.56-.46,5.61,5.61,0,0,0-1.62-.75,10.67,10.67,0,0,0-3-.38c-1.29,0-2.91.08-4.05.08-.78,0-2.54-.08-4-.08-.42,0-.61,0-.61.25s.17.25.47.25A6.32,6.32,0,0,1,9.93,6c.92.2,1.14.65,1.2,1.6s.06,1.67.06,5.92v4.92c0,1.61,0,3.08,0,4.24a29.41,29.41,0,0,0,3.48-1.06c0-.95,0-2,0-3.18V7.28c0-.31.08-.47.22-.53a4.39,4.39,0,0,1,3.88,1,5.4,5.4,0,0,1,1.65,4.19c0,2.85-2.18,4.61-3.74,4.61-.59,0-.78.09-.78.31s.19.22.33.25a3.89,3.89,0,0,0,.59,0,6.57,6.57,0,0,0,6.86-6.76A4.87,4.87,0,0,0,22.24,7Z" transform="translate(-1 -5.44)"/></g><path d="M6.59,22.85c-4.94-.75-4.93-4.85,0-9.15a25.5,25.5,0,0,1,4-2.83c0-.48,0-.87,0-1.21a28.44,28.44,0,0,0-5.71,3.78C-.3,18-.31,22.31,4.9,23.12a16.47,16.47,0,0,0,5.71-.32A13.62,13.62,0,0,1,6.59,22.85Z" transform="translate(-1 -5.44)"/><path d="M16.82,7.29c-.55.15-1.1.31-1.66.5v1A29.34,29.34,0,0,1,18,7.84,3.69,3.69,0,0,0,16.82,7.29Z" transform="translate(-1 -5.44)"/><path d="M23.83,6.67q-.63-.09-1.32-.12l.1.09h0a6.5,6.5,0,0,1,.47.53,10.73,10.73,0,0,1,1.42.12,5.43,5.43,0,0,1,2.71,1.09A4.87,4.87,0,0,0,23.83,6.67Z" transform="translate(-1 -5.44)"/><path class="cls-4" d="M26.56,16.77a34.67,34.67,0,0,1-12,6.51l-.06,0-.11,0a28.32,28.32,0,0,1-3.78.91,17.51,17.51,0,0,1-5.45.17,5.5,5.5,0,0,1-3.81-1.93,6,6,0,0,0,3.06,1.22,17.52,17.52,0,0,0,6.14-.34A30.85,30.85,0,0,0,15.17,22a32.16,32.16,0,0,0,9.49-5.53c5.59-4.85,5.6-9.48,0-10.34A14,14,0,0,0,21.83,6l-.17-.1a16.44,16.44,0,0,1,4.93-.08C32.48,6.74,32.47,11.63,26.56,16.77Z" transform="translate(-1 -5.44)"/></svg>